<?xml version="1.0" encoding="utf-8"?>
<!-- Generator: Adobe Illustrator 15.1.0, SVG Export Plug-In . SVG Version: 6.00 Build 0)  -->
<!DOCTYPE svg PUBLIC "-//W3C//DTD SVG 1.1//EN" "http://www.w3.org/Graphics/SVG/1.1/DTD/svg11.dtd">
<svg version="1.1"
	xmlns="http://www.w3.org/2000/svg"
	xmlns:xlink="http://www.w3.org/1999/xlink" x="0px" y="0px" width="250px" height="150px" viewBox="0 0 250 150" enable-background="new 0 0 250 150" xml:space="preserve">
	<g id="Layer_1">
		<g>
			<path fill="#009444" stroke="#000000" stroke-miterlimit="10" d="M173.696,118.715c-5.85,2.25-17.549,5.551-31.198,5.551
			c-15.3,0-27.899-3.9-37.799-13.35C96,102.516,90.6,89.017,90.6,73.268c0-30.149,20.849-52.198,54.748-52.198
			c11.699,0,20.999,2.55,25.349,4.65l-3.3,10.649c-5.399-2.55-12.149-4.35-22.349-4.35c-24.599,0-40.648,15.299-40.648,40.648
			c0,25.649,15.3,40.798,38.998,40.798c8.55,0,14.399-1.2,17.399-2.7V80.617h-20.399v-10.5h33.299V118.715z"/>
		</g>
		<g>
			<path fill="#009444" stroke="#000000" stroke-miterlimit="10" d="M41.6,70.118h33.299v10.499H54.499v30.148
			c3,1.5,8.85,2.701,17.399,2.701c23.698,0,38.998-15.15,38.998-40.799c0-25.349-16.05-40.648-40.648-40.648
			c-10.199,0-16.949,1.8-22.349,4.35L44.6,25.72c4.35-2.1,13.649-4.65,25.349-4.65c33.898,0,54.748,22.049,54.748,52.198
			c0,15.75-5.4,29.249-14.099,37.648c-9.899,9.449-22.499,13.35-37.799,13.35c-13.649,0-25.349-3.3-31.198-5.55V70.118z"/>
		</g>
	</g>
	<g id="Layer_2">
		<path fill="#009444" stroke="#000000" stroke-miterlimit="10" d="M104.399,72.668c0-25.349,16.05-40.648,40.648-40.648
		c10.199,0,16.949,1.8,22.349,4.35l3.3-10.649c-4.35-2.1-13.649-4.65-25.349-4.65c-33.796,0-54.617,21.919-54.742,51.929
		l13.799-0.029C104.405,72.868,104.399,72.77,104.399,72.668z"/>
		<path display="none" fill="#009444" stroke="#000000" stroke-miterlimit="10" d="M140.397,70.119v10.5h20.399v30.148
		c-3,1.5-8.85,2.7-17.399,2.7c-23.604,0-38.872-15.033-38.992-40.497l-13.799,0.029c0,0.09-0.006,0.179-0.006,0.27
		c0,15.749,5.4,29.249,14.099,37.648c9.899,9.449,22.499,13.349,37.799,13.349c13.649,0,25.349-3.299,31.198-5.549V70.119H140.397z" />
		<line fill="none" stroke="#009444" stroke-width="1.2" stroke-miterlimit="10" x1="91.063" y1="72.999" x2="103.958" y2="72.999"/>
	</g>
</svg>
